
<svg xmlns="http://www.w3.org/2000/svg" width="206" height="232" viewBox="0 0 206 232" fill="none">
  <g clip-path="url(#clip0_769_5983)">
    <path d="M193.978 49.5924L115.022 4.00836C107.578 -0.28957 98.4216 -0.28957 90.9778 4.00836L12.0222 49.5924C4.57845 53.8804 0 61.825 0 70.4109V161.579C0 170.165 4.57845 178.11 12.0222 182.397L90.9778 227.982C98.4216 232.279 107.578 232.279 115.022 227.982L193.978 182.397C201.422 178.1 206 170.165 206 161.579V70.4109C206 61.825 201.422 53.8804 193.978 49.5924ZM107.338 49.5323L158.643 138.396C160.256 141.191 158.693 143.456 158.172 144.087C157.651 144.718 155.727 146.692 152.682 145.64L110.814 131.263C105.775 129.53 100.235 129.53 95.1956 131.263L53.3284 145.64C50.2828 146.692 48.3492 144.718 47.8382 144.087C47.3173 143.456 45.7544 141.191 47.3674 138.396L98.672 49.5323C99.9744 47.2682 102.138 47.0277 103.01 47.0277C103.882 47.0277 106.046 47.2682 107.348 49.5323H107.338ZM17.1617 141.111L16.8611 82.1826C16.821 74.5886 20.8785 67.5656 27.4707 63.7987L78.6551 34.5948C81.32 33.072 84.2855 36.0475 82.7426 38.7124L22.762 142.594C21.2292 145.249 17.1717 144.177 17.1516 141.111H17.1617ZM164.373 176.767L114.561 204.057C107.368 208.005 98.652 208.005 91.4487 204.057L41.6368 176.767C38.6212 175.114 38.9519 170.686 42.1678 169.494L94.6546 150.068C100.045 148.074 105.965 148.074 111.345 150.068L163.832 169.494C167.058 170.686 167.379 175.114 164.363 176.767H164.373ZM188.838 141.121C188.818 144.187 184.761 145.259 183.228 142.604L123.247 38.7224C121.715 36.0675 124.68 33.092 127.335 34.6048L178.519 63.8087C185.111 67.5756 189.169 74.5986 189.129 82.1926L188.828 141.121H188.838Z" fill="#1D69F4"/>
  </g>
  <defs>
    <clipPath id="clip0_769_5983">
      <rect width="206" height="230.435" fill="white" transform="translate(0 0.782471)"/>
    </clipPath>
  </defs>
</svg>
