<svg xmlns="http://www.w3.org/2000/svg" xmlns:xlink="http://www.w3.org/1999/xlink" width="2000" zoomAndPan="magnify" viewBox="0 0 1500 1499.999933" height="2000" preserveAspectRatio="xMidYMid meet" version="1.0"><defs><linearGradient x1="0.0000133333" gradientTransform="matrix(0.75, 0, 0, 0.75, 0.00003335, -0.00002)" y1="0.0000133333" x2="1999.999917" gradientUnits="userSpaceOnUse" y2="1999.999917" id="3d521d7ffb"><stop stop-opacity="1" stop-color="rgb(0.39978%, 11.399841%, 31.399536%)" offset="0"/><stop stop-opacity="1" stop-color="rgb(0.411987%, 11.450195%, 31.520081%)" offset="0.0078125"/><stop stop-opacity="1" stop-color="rgb(0.434875%, 11.550903%, 31.762695%)" offset="0.015625"/><stop stop-opacity="1" stop-color="rgb(0.45929%, 11.651611%, 32.003784%)" offset="0.0234375"/><stop stop-opacity="1" stop-color="rgb(0.483704%, 11.752319%, 32.246399%)" offset="0.03125"/><stop stop-opacity="1" stop-color="rgb(0.508118%, 11.853027%, 32.489014%)" offset="0.0390625"/><stop stop-opacity="1" stop-color="rgb(0.532532%, 11.953735%, 32.730103%)" offset="0.046875"/><stop stop-opacity="1" stop-color="rgb(0.556946%, 12.054443%, 32.972717%)" offset="0.0546875"/><stop stop-opacity="1" stop-color="rgb(0.58136%, 12.155151%, 33.215332%)" offset="0.0625"/><stop stop-opacity="1" stop-color="rgb(0.604248%, 12.255859%, 33.457947%)" offset="0.0703125"/><stop stop-opacity="1" stop-color="rgb(0.628662%, 12.356567%, 33.699036%)" offset="0.078125"/><stop stop-opacity="1" stop-color="rgb(0.653076%, 12.457275%, 33.94165%)" offset="0.0859375"/><stop stop-opacity="1" stop-color="rgb(0.67749%, 12.557983%, 34.184265%)" offset="0.09375"/><stop stop-opacity="1" stop-color="rgb(0.701904%, 12.658691%, 34.425354%)" offset="0.101563"/><stop stop-opacity="1" stop-color="rgb(0.726318%, 12.759399%, 34.667969%)" offset="0.109375"/><stop stop-opacity="1" stop-color="rgb(0.750732%, 12.860107%, 34.910583%)" offset="0.117188"/><stop stop-opacity="1" stop-color="rgb(0.775146%, 12.960815%, 35.153198%)" offset="0.125"/><stop stop-opacity="1" stop-color="rgb(0.798035%, 13.061523%, 35.394287%)" offset="0.132812"/><stop stop-opacity="1" stop-color="rgb(0.822449%, 13.162231%, 35.636902%)" offset="0.140625"/><stop stop-opacity="1" stop-color="rgb(0.846863%, 13.262939%, 35.879517%)" offset="0.148438"/><stop stop-opacity="1" stop-color="rgb(0.871277%, 13.365173%, 36.120605%)" offset="0.15625"/><stop stop-opacity="1" stop-color="rgb(0.895691%, 13.465881%, 36.36322%)" offset="0.164062"/><stop stop-opacity="1" stop-color="rgb(0.920105%, 13.566589%, 36.605835%)" offset="0.171875"/><stop stop-opacity="1" stop-color="rgb(0.944519%, 13.667297%, 36.84845%)" offset="0.179688"/><stop stop-opacity="1" stop-color="rgb(0.968933%, 13.768005%, 37.089539%)" offset="0.1875"/><stop stop-opacity="1" stop-color="rgb(0.991821%, 13.868713%, 37.332153%)" offset="0.195312"/><stop stop-opacity="1" stop-color="rgb(1.016235%, 13.969421%, 37.574768%)" offset="0.203125"/><stop stop-opacity="1" stop-color="rgb(1.040649%, 14.070129%, 37.817383%)" offset="0.210937"/><stop stop-opacity="1" stop-color="rgb(1.065063%, 14.170837%, 38.058472%)" offset="0.21875"/><stop stop-opacity="1" stop-color="rgb(1.089478%, 14.271545%, 38.301086%)" offset="0.226562"/><stop stop-opacity="1" stop-color="rgb(1.113892%, 14.372253%, 38.543701%)" offset="0.234375"/><stop stop-opacity="1" stop-color="rgb(1.138306%, 14.472961%, 38.78479%)" offset="0.242187"/><stop stop-opacity="1" stop-color="rgb(1.16272%, 14.573669%, 39.027405%)" offset="0.25"/><stop stop-opacity="1" stop-color="rgb(1.185608%, 14.674377%, 39.27002%)" offset="0.257812"/><stop stop-opacity="1" stop-color="rgb(1.210022%, 14.775085%, 39.512634%)" offset="0.265625"/><stop stop-opacity="1" stop-color="rgb(1.234436%, 14.875793%, 39.753723%)" offset="0.273438"/><stop stop-opacity="1" stop-color="rgb(1.25885%, 14.976501%, 39.996338%)" offset="0.28125"/><stop stop-opacity="1" stop-color="rgb(1.283264%, 15.077209%, 40.238953%)" offset="0.289062"/><stop stop-opacity="1" stop-color="rgb(1.307678%, 15.177917%, 40.480042%)" offset="0.296875"/><stop stop-opacity="1" stop-color="rgb(1.332092%, 15.278625%, 40.722656%)" offset="0.304688"/><stop stop-opacity="1" stop-color="rgb(1.356506%, 15.379333%, 40.965271%)" offset="0.3125"/><stop stop-opacity="1" stop-color="rgb(1.379395%, 15.481567%, 41.207886%)" offset="0.320312"/><stop stop-opacity="1" stop-color="rgb(1.403809%, 15.582275%, 41.448975%)" offset="0.328125"/><stop stop-opacity="1" stop-color="rgb(1.428223%, 15.682983%, 41.691589%)" offset="0.335938"/><stop stop-opacity="1" stop-color="rgb(1.452637%, 15.783691%, 41.934204%)" offset="0.34375"/><stop stop-opacity="1" stop-color="rgb(1.477051%, 15.884399%, 42.175293%)" offset="0.351562"/><stop stop-opacity="1" stop-color="rgb(1.501465%, 15.985107%, 42.417908%)" offset="0.359375"/><stop stop-opacity="1" stop-color="rgb(1.525879%, 16.085815%, 42.660522%)" offset="0.367188"/><stop stop-opacity="1" stop-color="rgb(1.548767%, 16.186523%, 42.903137%)" offset="0.375"/><stop stop-opacity="1" stop-color="rgb(1.573181%, 16.287231%, 43.144226%)" offset="0.382812"/><stop stop-opacity="1" stop-color="rgb(1.597595%, 16.387939%, 43.386841%)" offset="0.390625"/><stop stop-opacity="1" stop-color="rgb(1.622009%, 16.488647%, 43.629456%)" offset="0.398438"/><stop stop-opacity="1" stop-color="rgb(1.646423%, 16.589355%, 43.87207%)" offset="0.40625"/><stop stop-opacity="1" stop-color="rgb(1.670837%, 16.690063%, 44.113159%)" offset="0.414062"/><stop stop-opacity="1" stop-color="rgb(1.695251%, 16.790771%, 44.355774%)" offset="0.421875"/><stop stop-opacity="1" stop-color="rgb(1.719666%, 16.891479%, 44.598389%)" offset="0.429687"/><stop stop-opacity="1" stop-color="rgb(1.742554%, 16.992188%, 44.839478%)" offset="0.4375"/><stop stop-opacity="1" stop-color="rgb(1.766968%, 17.092896%, 45.082092%)" offset="0.445312"/><stop stop-opacity="1" stop-color="rgb(1.791382%, 17.193604%, 45.324707%)" offset="0.453125"/><stop stop-opacity="1" stop-color="rgb(1.815796%, 17.294312%, 45.567322%)" offset="0.460937"/><stop stop-opacity="1" stop-color="rgb(1.84021%, 17.39502%, 45.808411%)" offset="0.46875"/><stop stop-opacity="1" stop-color="rgb(1.864624%, 17.495728%, 46.051025%)" offset="0.476562"/><stop stop-opacity="1" stop-color="rgb(1.889038%, 17.597961%, 46.29364%)" offset="0.484375"/><stop stop-opacity="1" stop-color="rgb(1.913452%, 17.698669%, 46.534729%)" offset="0.492187"/><stop stop-opacity="1" stop-color="rgb(1.93634%, 17.799377%, 46.777344%)" offset="0.5"/><stop stop-opacity="1" stop-color="rgb(1.948547%, 17.849731%, 46.899414%)" offset="0.5"/><stop stop-opacity="1" stop-color="rgb(1.960754%, 17.900085%, 47.019958%)" offset="0.5"/><stop stop-opacity="1" stop-color="rgb(1.972961%, 17.950439%, 47.142029%)" offset="0.507812"/><stop stop-opacity="1" stop-color="rgb(1.985168%, 18.000793%, 47.262573%)" offset="0.515625"/><stop stop-opacity="1" stop-color="rgb(2.009583%, 18.101501%, 47.503662%)" offset="0.523438"/><stop stop-opacity="1" stop-color="rgb(2.033997%, 18.202209%, 47.746277%)" offset="0.53125"/><stop stop-opacity="1" stop-color="rgb(2.058411%, 18.302917%, 47.988892%)" offset="0.539062"/><stop stop-opacity="1" stop-color="rgb(2.082825%, 18.403625%, 48.22998%)" offset="0.546875"/><stop stop-opacity="1" stop-color="rgb(2.107239%, 18.504333%, 48.472595%)" offset="0.554688"/><stop stop-opacity="1" stop-color="rgb(2.130127%, 18.605042%, 48.71521%)" offset="0.5625"/><stop stop-opacity="1" stop-color="rgb(2.154541%, 18.70575%, 48.957825%)" offset="0.570312"/><stop stop-opacity="1" stop-color="rgb(2.178955%, 18.806458%, 49.198914%)" offset="0.578125"/><stop stop-opacity="1" stop-color="rgb(2.203369%, 18.907166%, 49.441528%)" offset="0.585938"/><stop stop-opacity="1" stop-color="rgb(2.227783%, 19.007874%, 49.684143%)" offset="0.59375"/><stop stop-opacity="1" stop-color="rgb(2.252197%, 19.108582%, 49.926758%)" offset="0.601562"/><stop stop-opacity="1" stop-color="rgb(2.276611%, 19.20929%, 50.167847%)" offset="0.609375"/><stop stop-opacity="1" stop-color="rgb(2.301025%, 19.309998%, 50.410461%)" offset="0.617188"/><stop stop-opacity="1" stop-color="rgb(2.323914%, 19.410706%, 50.653076%)" offset="0.625"/><stop stop-opacity="1" stop-color="rgb(2.348328%, 19.511414%, 50.894165%)" offset="0.632812"/><stop stop-opacity="1" stop-color="rgb(2.372742%, 19.612122%, 51.13678%)" offset="0.640625"/><stop stop-opacity="1" stop-color="rgb(2.397156%, 19.714355%, 51.379395%)" offset="0.648438"/><stop stop-opacity="1" stop-color="rgb(2.42157%, 19.815063%, 51.622009%)" offset="0.65625"/><stop stop-opacity="1" stop-color="rgb(2.445984%, 19.915771%, 51.863098%)" offset="0.664062"/><stop stop-opacity="1" stop-color="rgb(2.470398%, 20.016479%, 52.105713%)" offset="0.671875"/><stop stop-opacity="1" stop-color="rgb(2.494812%, 20.117188%, 52.348328%)" offset="0.679688"/><stop stop-opacity="1" stop-color="rgb(2.5177%, 20.217896%, 52.589417%)" offset="0.6875"/><stop stop-opacity="1" stop-color="rgb(2.542114%, 20.318604%, 52.832031%)" offset="0.695312"/><stop stop-opacity="1" stop-color="rgb(2.566528%, 20.419312%, 53.074646%)" offset="0.703125"/><stop stop-opacity="1" stop-color="rgb(2.590942%, 20.52002%, 53.317261%)" offset="0.710938"/><stop stop-opacity="1" stop-color="rgb(2.615356%, 20.620728%, 53.55835%)" offset="0.71875"/><stop stop-opacity="1" stop-color="rgb(2.639771%, 20.721436%, 53.800964%)" offset="0.726562"/><stop stop-opacity="1" stop-color="rgb(2.664185%, 20.822144%, 54.043579%)" offset="0.734375"/><stop stop-opacity="1" stop-color="rgb(2.687073%, 20.922852%, 54.284668%)" offset="0.742188"/><stop stop-opacity="1" stop-color="rgb(2.711487%, 21.02356%, 54.527283%)" offset="0.75"/><stop stop-opacity="1" stop-color="rgb(2.735901%, 21.124268%, 54.769897%)" offset="0.757813"/><stop stop-opacity="1" stop-color="rgb(2.760315%, 21.224976%, 55.012512%)" offset="0.765625"/><stop stop-opacity="1" stop-color="rgb(2.784729%, 21.325684%, 55.253601%)" offset="0.773438"/><stop stop-opacity="1" stop-color="rgb(2.809143%, 21.426392%, 55.496216%)" offset="0.78125"/><stop stop-opacity="1" stop-color="rgb(2.833557%, 21.5271%, 55.738831%)" offset="0.789063"/><stop stop-opacity="1" stop-color="rgb(2.857971%, 21.627808%, 55.981445%)" offset="0.796875"/><stop stop-opacity="1" stop-color="rgb(2.880859%, 21.728516%, 56.222534%)" offset="0.804688"/><stop stop-opacity="1" stop-color="rgb(2.905273%, 21.83075%, 56.465149%)" offset="0.8125"/><stop stop-opacity="1" stop-color="rgb(2.929688%, 21.931458%, 56.707764%)" offset="0.820313"/><stop stop-opacity="1" stop-color="rgb(2.954102%, 22.032166%, 56.948853%)" offset="0.828125"/><stop stop-opacity="1" stop-color="rgb(2.978516%, 22.132874%, 57.191467%)" offset="0.835938"/><stop stop-opacity="1" stop-color="rgb(3.00293%, 22.233582%, 57.434082%)" offset="0.84375"/><stop stop-opacity="1" stop-color="rgb(3.027344%, 22.33429%, 57.676697%)" offset="0.851562"/><stop stop-opacity="1" stop-color="rgb(3.051758%, 22.434998%, 57.917786%)" offset="0.859375"/><stop stop-opacity="1" stop-color="rgb(3.074646%, 22.535706%, 58.1604%)" offset="0.867188"/><stop stop-opacity="1" stop-color="rgb(3.09906%, 22.636414%, 58.403015%)" offset="0.875"/><stop stop-opacity="1" stop-color="rgb(3.123474%, 22.737122%, 58.644104%)" offset="0.882812"/><stop stop-opacity="1" stop-color="rgb(3.147888%, 22.83783%, 58.886719%)" offset="0.890625"/><stop stop-opacity="1" stop-color="rgb(3.172302%, 22.938538%, 59.129333%)" offset="0.898438"/><stop stop-opacity="1" stop-color="rgb(3.196716%, 23.039246%, 59.371948%)" offset="0.90625"/><stop stop-opacity="1" stop-color="rgb(3.22113%, 23.139954%, 59.613037%)" offset="0.914062"/><stop stop-opacity="1" stop-color="rgb(3.245544%, 23.240662%, 59.855652%)" offset="0.921875"/><stop stop-opacity="1" stop-color="rgb(3.268433%, 23.34137%, 60.098267%)" offset="0.929688"/><stop stop-opacity="1" stop-color="rgb(3.292847%, 23.442078%, 60.339355%)" offset="0.9375"/><stop stop-opacity="1" stop-color="rgb(3.317261%, 23.542786%, 60.58197%)" offset="0.945312"/><stop stop-opacity="1" stop-color="rgb(3.341675%, 23.643494%, 60.824585%)" offset="0.953125"/><stop stop-opacity="1" stop-color="rgb(3.366089%, 23.744202%, 61.0672%)" offset="0.960938"/><stop stop-opacity="1" stop-color="rgb(3.390503%, 23.846436%, 61.308289%)" offset="0.96875"/><stop stop-opacity="1" stop-color="rgb(3.414917%, 23.947144%, 61.550903%)" offset="0.976562"/><stop stop-opacity="1" stop-color="rgb(3.439331%, 24.047852%, 61.793518%)" offset="0.984375"/><stop stop-opacity="1" stop-color="rgb(3.462219%, 24.14856%, 62.036133%)" offset="0.992188"/><stop stop-opacity="1" stop-color="rgb(3.486633%, 24.249268%, 62.277222%)" offset="1"/></linearGradient><clipPath id="7d31f65ffd"><path d="M 306.164062 252.40625 L 1194.164062 252.40625 L 1194.164062 1244.996094 L 306.164062 1244.996094 Z M 306.164062 252.40625 " clip-rule="nonzero"/></clipPath></defs><rect x="-150" width="1800" fill="#ffffff" y="-149.999993" height="1799.99992" fill-opacity="1"/><rect x="-150" fill="url(#3d521d7ffb)" width="1800" y="-149.999993" height="1799.99992"/><g clip-path="url(#7d31f65ffd)"><path fill="#ffffff" d="M 1142.34375 462.609375 L 801.988281 266.257812 C 769.898438 247.746094 730.429688 247.746094 698.339844 266.257812 L 357.988281 462.609375 C 325.902344 481.082031 306.164062 515.300781 306.164062 552.285156 L 306.164062 944.988281 C 306.164062 982.015625 325.902344 1016.191406 357.988281 1034.660156 L 698.339844 1231.011719 C 730.429688 1249.527344 769.898438 1249.527344 801.988281 1231.011719 L 1142.34375 1034.660156 C 1174.429688 1016.148438 1194.164062 981.972656 1194.164062 944.988281 L 1194.164062 552.285156 C 1194.164062 515.300781 1174.429688 481.082031 1142.34375 462.609375 Z M 720.28125 455.878906 C 726.542969 445.089844 737.730469 438.617188 750.207031 438.617188 C 762.6875 438.617188 773.875 445.089844 780.136719 455.878906 L 1001.292969 838.65625 C 1008.59375 851.257812 1007.296875 866.621094 998.054688 877.839844 C 991.316406 885.992188 981.601562 890.4375 971.539062 890.4375 C 967.738281 890.4375 963.9375 889.835938 960.179688 888.542969 L 779.707031 826.617188 C 760.703125 820.097656 739.800781 820.097656 720.796875 826.617188 L 540.320312 888.542969 C 526.546875 893.246094 511.691406 889.0625 502.449219 877.839844 C 493.207031 866.621094 491.910156 851.214844 499.207031 838.65625 L 720.367188 455.878906 Z M 393.359375 874.039062 C 391.804688 874.039062 390.25 873.824219 388.695312 873.4375 C 380.921875 871.367188 375.867188 864.847656 375.824219 856.824219 L 374.53125 602.992188 C 374.355469 568.769531 392.710938 537.007812 422.464844 520.046875 L 643.105469 394.253906 C 650.058594 390.285156 658.265625 391.363281 663.921875 397.058594 C 669.578125 402.753906 670.660156 410.910156 666.644531 417.859375 L 408.085938 865.328125 C 404.890625 870.847656 399.40625 873.996094 393.359375 873.996094 Z M 1016.796875 1014.207031 L 802.074219 1131.761719 C 785.835938 1140.652344 768.003906 1145.09375 750.207031 1145.09375 C 732.414062 1145.09375 714.578125 1140.652344 698.339844 1131.761719 L 483.617188 1014.207031 C 476.105469 1010.109375 471.828125 1002.253906 472.476562 993.710938 C 473.125 985.164062 478.480469 978.042969 486.511719 975.066406 L 712.765625 891.390625 C 736.949219 882.457031 763.554688 882.457031 787.738281 891.390625 L 1013.992188 975.066406 C 1022.023438 978.042969 1027.378906 985.164062 1028.027344 993.710938 C 1028.675781 1002.253906 1024.398438 1010.109375 1016.882812 1014.207031 Z M 1124.503906 856.867188 C 1124.503906 864.890625 1119.410156 871.410156 1111.679688 873.480469 C 1110.125 873.910156 1108.523438 874.085938 1107.015625 874.085938 C 1100.96875 874.085938 1095.484375 870.933594 1092.285156 865.414062 L 833.730469 417.945312 C 829.714844 411 830.796875 402.84375 836.453125 397.144531 C 842.109375 391.449219 850.273438 390.371094 857.269531 394.339844 L 1077.90625 520.136719 C 1107.664062 537.09375 1126.019531 568.855469 1125.84375 603.078125 L 1124.546875 856.910156 Z M 1124.503906 856.867188 " fill-opacity="1" fill-rule="nonzero"/></g><path fill="#914fed" d="M 663.921875 397.085938 C 658.265625 391.390625 650.0625 390.269531 643.109375 394.28125 L 422.46875 520.078125 C 392.757812 537.035156 374.359375 568.796875 374.53125 603.019531 L 375.828125 856.851562 C 375.828125 864.878906 380.921875 871.394531 388.695312 873.46875 C 390.25 873.898438 391.847656 874.070312 393.359375 874.070312 C 399.40625 874.070312 404.890625 870.921875 408.085938 865.394531 L 666.644531 417.929688 C 670.660156 410.984375 669.582031 402.828125 663.921875 397.128906 Z M 663.921875 397.085938 " fill-opacity="1" fill-rule="nonzero"/><path fill="#914fed" d="M 1077.859375 520.074219 L 857.222656 394.28125 C 850.226562 390.308594 842.058594 391.390625 836.40625 397.085938 C 830.746094 402.78125 829.667969 410.9375 833.683594 417.886719 L 1092.238281 865.351562 C 1095.4375 870.875 1100.921875 874.023438 1106.96875 874.023438 C 1108.476562 874.023438 1110.078125 873.808594 1111.632812 873.421875 C 1119.40625 871.347656 1124.414062 864.832031 1124.457031 856.808594 L 1125.753906 602.972656 C 1125.925781 568.753906 1107.570312 536.992188 1077.816406 520.03125 Z M 1077.859375 520.074219 " fill-opacity="1" fill-rule="nonzero"/><path fill="#1d69f4" d="M 502.363281 877.828125 C 511.601562 889.046875 526.460938 893.234375 540.234375 888.53125 L 720.710938 826.601562 C 739.714844 820.085938 760.613281 820.085938 779.621094 826.601562 L 960.09375 888.53125 C 963.851562 889.824219 967.695312 890.425781 971.453125 890.425781 C 981.558594 890.425781 991.230469 885.984375 997.96875 877.828125 C 1007.210938 866.605469 1008.507812 851.203125 1001.207031 838.640625 L 780.050781 455.867188 C 773.789062 445.078125 762.601562 438.605469 750.121094 438.605469 C 737.644531 438.605469 726.457031 445.078125 720.195312 455.867188 L 499.035156 838.640625 C 491.738281 851.246094 493.035156 866.605469 502.273438 877.828125 Z M 502.363281 877.828125 " fill-opacity="1" fill-rule="nonzero"/><path fill="#488df3" d="M 1013.902344 975.003906 L 787.648438 891.328125 C 763.460938 882.394531 736.859375 882.394531 712.675781 891.328125 L 486.421875 975.003906 C 478.386719 977.980469 472.988281 985.101562 472.382812 993.644531 C 471.738281 1002.191406 476.011719 1010.042969 483.527344 1014.144531 L 698.25 1131.695312 C 714.488281 1140.585938 732.324219 1145.03125 750.117188 1145.03125 C 767.90625 1145.03125 785.746094 1140.585938 801.984375 1131.695312 L 1016.707031 1014.144531 C 1024.222656 1010.042969 1028.496094 1002.191406 1027.851562 993.644531 C 1027.199219 985.101562 1021.847656 977.980469 1013.816406 975.003906 Z M 1013.902344 975.003906 " fill-opacity="1" fill-rule="nonzero"/></svg>